<svg xmlns="http://www.w3.org/2000/svg" viewBox="0 0 240 240" width="240" height="240">
  <defs>
    <linearGradient id="grad1" x1="0%" y1="0%" x2="100%" y2="100%">
      <stop offset="0%" style="stop-color:#2AABEE;stop-opacity:1" />
      <stop offset="100%" style="stop-color:#229ED9;stop-opacity:1" />
    </linearGradient>
  </defs>
  <circle cx="120" cy="120" r="120" fill="url(#grad1)"/>
  <path d="M81.229 128.772l14.237 39.406s1.78 3.687 3.686 3.687c1.547 0 2.538-1.265 2.538-1.265l20.233-19.414 33.645-20.89 48.222-14.223c0-.108 4.649-2.108 5.315-6.676.666-4.569-3.315-7.03-3.315-7.03L89.239 71.231c-3.315-1.265-7.03.108-5.315 4.569l-2.538 52.972z" fill="#FFFFFF"/>
  <path d="M100.106 138.878l-2.538 33.645s-1.204 5.315 4.569 5.315c3.315 0 7.03-2.108 7.03-2.108l20.233-12.751 33.645-20.89" fill="#D0E8F2"/>
  <path d="M81.229 128.772l14.237 39.406s1.78 3.687 3.686 3.687c1.547 0 2.538-1.265 2.538-1.265l20.233-19.414" fill="#A5C9E1"/>
</svg>

